<svg xmlns="http://www.w3.org/2000/svg" xmlns:xlink="http://www.w3.org/1999/xlink" id="Layer_1" x="0px" y="0px" viewBox="0 0 512 512" style="enable-background:new 0 0 512 512;" xml:space="preserve"><g>	<g>		<g>			<path d="M357.086,129.084c-4.087-2.321-9.31-0.896-11.639,3.2s-0.896,9.31,3.2,11.639c58.65,33.348,95.087,95.906,95.087,163.277    c0,103.518-84.215,187.733-187.733,187.733S68.267,410.718,68.267,307.2c0-67.234,36.335-129.749,94.831-163.132    c4.096-2.338,5.513-7.544,3.183-11.639c-2.338-4.096-7.552-5.513-11.639-3.183C90.837,165.666,51.2,233.847,51.2,307.2    C51.2,420.13,143.078,512,256,512s204.8-91.87,204.8-204.8C460.8,233.711,421.06,165.461,357.086,129.084z"></path>			<path d="M187.972,169.634c4.224-2.091,5.956-7.211,3.866-11.435c-2.082-4.224-7.194-5.965-11.426-3.866    c-58.65,28.996-95.078,87.569-95.078,152.866c0,94.106,76.561,170.667,170.667,170.667S426.667,401.306,426.667,307.2    c0-65.092-36.267-123.588-94.643-152.653c-4.241-2.108-9.353-0.384-11.443,3.84c-2.099,4.215-0.384,9.335,3.831,11.435    C376.96,195.985,409.6,248.619,409.6,307.2c0,84.693-68.907,153.6-153.6,153.6s-153.6-68.907-153.6-153.6    C102.4,248.439,135.194,195.729,187.972,169.634z"></path>			<path d="M249.967,193.766c0.06,0.06,0.154,0.085,0.213,0.145c0.162,0.154,0.324,0.273,0.503,0.41    c0.495,0.401,1.033,0.708,1.596,0.99c0.273,0.128,0.512,0.282,0.776,0.384c0.017,0.009,0.026,0.017,0.043,0.017    c0.077,0.026,0.128,0.094,0.205,0.119c0.017,0,0.026,0,0.043,0.009c0.845,0.273,1.741,0.427,2.654,0.427    c0.913,0,1.809-0.154,2.654-0.427c0.017-0.009,0.026-0.009,0.043-0.009c0.077-0.026,0.128-0.094,0.205-0.119    c0.017,0,0.026-0.009,0.043-0.017c0.265-0.102,0.503-0.256,0.777-0.384c0.563-0.282,1.101-0.589,1.596-0.99    c0.179-0.136,0.341-0.256,0.503-0.41c0.06-0.06,0.154-0.085,0.213-0.145l128-128c3.336-3.337,3.336-8.73,0-12.066l-51.2-51.2    C337.237,0.896,335.061,0,332.8,0H179.2c-2.261,0-4.437,0.896-6.033,2.5l-51.2,51.2c-3.337,3.337-3.337,8.73,0,12.066    L249.967,193.766z M256,160.742l-30.822-92.476h61.645L256,160.742z M182.733,17.067h146.534l42.667,42.667l-96.41,96.41    l29.295-87.876h36.514c4.71,0,8.533-3.823,8.533-8.533s-3.823-8.533-8.533-8.533h-36.514l-6.588-19.763    c-1.493-4.471-6.306-6.904-10.795-5.402c-4.471,1.493-6.895,6.323-5.402,10.795l4.787,14.37h-61.645l4.787-14.37    c1.493-4.471-0.93-9.301-5.402-10.795c-4.471-1.502-9.301,0.93-10.795,5.402L207.181,51.2h-36.514    c-4.71,0-8.533,3.823-8.533,8.533s3.823,8.533,8.533,8.533h36.514l29.295,87.876l-96.41-96.41L182.733,17.067z"></path>		</g>	</g></g><g></g><g></g><g></g><g></g><g></g><g></g><g></g><g></g><g></g><g></g><g></g><g></g><g></g><g></g><g></g></svg>