<svg xmlns="http://www.w3.org/2000/svg" xmlns:xlink="http://www.w3.org/1999/xlink" id="Layer_1" x="0px" y="0px" viewBox="0 0 512 512" style="enable-background:new 0 0 512 512;" xml:space="preserve"><g>	<polygon style="fill:#9FC7D1;" points="376,176 356.944,176 348.944,192 376,192  "></polygon>	<polygon style="fill:#9FC7D1;" points="392,208 392,235.504 414.92,208  "></polygon>	<polygon style="fill:#9FC7D1;" points="411.056,176 392,176 392,192 419.056,192  "></polygon>	<polygon style="fill:#9FC7D1;" points="376,208 353.08,208 376,235.504  "></polygon></g><path style="fill:#EEC97B;" d="M458.728,370.16c-3.36-2.464-7.56-3.144-11.504-1.872l-148.8,47.344 c-1.168,0.376-2.432,0.48-3.64,0.28l-104-16c-4.136-0.632-7.08-4.344-6.76-8.512c0.32-4.184,3.792-7.4,7.976-7.4h64 c14.88,0,27.424-10.208,30.984-24H256h-92.688l-29.656,29.656C132.152,391.16,130.12,392,128,392h-8v72h44 c0.64,0,1.272,0.08,1.888,0.224l128.696,31.192l163.464-104.024c3.728-2.368,5.952-6.424,5.952-10.856 C464,376.392,462.08,372.6,458.728,370.16z"></path><path style="fill:#E87B5A;" d="M296,344c4.416,0,8,3.576,8,8v8c0,12.656,5.992,24.4,16.056,31.944L424,358.88V328H304 c-4.416,0-8-3.576-8-8V192h-8c-39.696,0-72,32.296-72,72v8c0,39.704,32.304,72,72,72H296z M280,304h-16v-16h16V304z M280,272h-16 v-16h16V272z M280,240h-16v-16h16V240z"></path><g>	<rect x="80" y="376" style="fill:#9FC7D1;" width="24" height="120"></rect>	<rect y="376" style="fill:#9FC7D1;" width="64" height="120"></rect></g><g>	<path style="fill:#3C4A53;" d="M468.176,357.24c-7.512-5.496-16.912-7.032-25.8-4.208L440,353.784V320  c0-2.256-0.944-4.272-2.44-5.72c1.56-5.184,2.44-10.552,2.44-16.104c0-23.784-14.936-44.104-35.896-52.208l34.04-40.848  c2.032-2.448,2.432-5.856,1.008-8.704l-16-32C421.8,161.712,419.032,160,416,160h-64c-3.032,0-5.8,1.712-7.16,4.424l-16,32  c-1.424,2.84-1.024,6.256,1.008,8.704l34.04,40.848C342.936,254.08,328,274.392,328,298.176c0,4.736,0.608,9.344,1.744,13.824H312  V184c0-4.424-3.584-8-8-8h-16c-48.52,0-88,39.48-88,88v8c0,29.76,14.888,56.064,37.56,72H160c-2.12,0-4.16,0.84-5.656,2.344  L124.688,376H120v-8c0-4.424-3.584-8-8-8H0v8v8h64v120H0v8v8h112c4.416,0,8-3.576,8-8v-24h43.04l131.072,31.776  C294.736,511.92,295.368,512,296,512c1.504,0,3-0.432,4.296-1.248l166.336-105.848C475,399.576,480,390.472,480,380.536  C480,371.224,475.688,362.736,468.176,357.24z M104,496H80V376h24V496z M392,176h19.056l8,16H392V176z M392,208h22.92L392,235.504  V208z M356.944,176H376v16h-27.056L356.944,176z M353.08,208H376v27.504L353.08,208z M384,258.176c22.056,0,40,17.944,40,40  c0,4.792-0.824,9.424-2.448,13.824H346.44c-1.616-4.4-2.44-9.024-2.44-13.824C344,276.128,361.944,258.176,384,258.176z M216,272  v-8c0-39.704,32.304-72,72-72h8v128c0,4.424,3.584,8,8,8h120v30.88l-103.944,33.072C309.992,384.4,304,372.656,304,360v-8  c0-4.424-3.584-8-8-8h-8C248.304,344,216,311.704,216,272z M302.448,397.552l-7.088,2.256l-21.408-3.288  c7.424-3.008,13.84-7.888,18.88-13.96C295.24,388.008,298.424,393.104,302.448,397.552z M458.04,391.4L294.576,495.424  L165.88,464.232C165.272,464.08,164.64,464,164,464h-44v-72h8c2.12,0,4.152-0.84,5.656-2.344L163.312,360H256h30.984  c-3.56,13.792-16.104,24-30.984,24h-64c-4.184,0-7.656,3.216-7.976,7.392c-0.32,4.168,2.632,7.88,6.76,8.512l104,16  c1.208,0.192,2.472,0.096,3.64-0.28l148.8-47.344c3.944-1.264,8.144-0.584,11.504,1.872c3.352,2.448,5.272,6.24,5.272,10.384  C464,384.968,461.776,389.024,458.04,391.4z"></path>	<rect x="448" y="48" style="fill:#3C4A53;" width="16" height="32"></rect>	<rect x="448" y="96" style="fill:#3C4A53;" width="16" height="16"></rect>	<rect x="448" y="128" style="fill:#3C4A53;" width="16" height="32"></rect>	<rect x="480" y="96" style="fill:#3C4A53;" width="32" height="16"></rect>	<rect x="400" y="96" style="fill:#3C4A53;" width="32" height="16"></rect>	<rect x="344" style="fill:#3C4A53;" width="16" height="32"></rect>	<rect x="344" y="48" style="fill:#3C4A53;" width="16" height="16"></rect>	<rect x="344" y="80" style="fill:#3C4A53;" width="16" height="32"></rect>	<rect x="376" y="48" style="fill:#3C4A53;" width="32" height="16"></rect>	<rect x="296" y="48" style="fill:#3C4A53;" width="32" height="16"></rect>	<rect x="264" y="256" style="fill:#3C4A53;" width="16" height="16"></rect>	<rect x="264" y="288" style="fill:#3C4A53;" width="16" height="16"></rect>	<rect x="264" y="224" style="fill:#3C4A53;" width="16" height="16"></rect></g><g></g><g></g><g></g><g></g><g></g><g></g><g></g><g></g><g></g><g></g><g></g><g></g><g></g><g></g><g></g></svg>