<svg xmlns="http://www.w3.org/2000/svg" xmlns:xlink="http://www.w3.org/1999/xlink" id="Layer_1" x="0px" y="0px" viewBox="0 0 511.993 511.993" style="enable-background:new 0 0 511.993 511.993;" xml:space="preserve"><path style="fill:#37BC9B;" d="M373.338,117.342H138.662c-5.891,0-10.663,4.766-10.663,10.656v255.996 c0,70.576,57.421,127.998,127.997,127.998c70.577,0,127.997-57.422,127.997-127.998V127.998 C383.993,122.108,379.212,117.342,373.338,117.342z"></path><path style="fill:#48CFAD;" d="M127.999,359.932v24.062c0,50.688,29.616,94.592,72.451,115.311 c91.202-58.982,155.857-137.514,183.543-174.715V127.998c0-1.844-0.469-3.578-1.297-5.094 C333.964,178.92,221.497,302.199,127.999,359.932z"></path><path style="opacity:0.2;fill:#FFFFFF;enable-background:new    ;" d="M373.338,117.342h-21.343c5.891,0,10.655,4.766,10.655,10.656 v255.996c0,66.982-51.717,122.123-117.317,127.561c3.515,0.281,7.069,0.438,10.663,0.438c70.577,0,127.997-57.422,127.997-127.998 V127.998C383.993,122.108,379.212,117.342,373.338,117.342z"></path><path style="fill:#EAC6BB;" d="M255.996,0C185.42,0,127.999,57.421,127.999,127.998c0,70.578,57.421,127.998,127.997,127.998 c70.577,0,127.997-57.421,127.997-127.998C383.993,57.422,326.573,0,255.996,0z"></path><g>	<path style="fill:#434A54;" d="M234.661,106.671c0,5.891-4.773,10.671-10.664,10.671s-10.664-4.781-10.664-10.671  s4.773-10.672,10.664-10.672S234.661,100.78,234.661,106.671z"></path>	<path style="fill:#434A54;" d="M298.652,106.671c0,5.891-4.766,10.671-10.656,10.671s-10.656-4.781-10.656-10.671  s4.765-10.672,10.656-10.672S298.652,100.78,298.652,106.671z"></path>	<path style="fill:#434A54;" d="M287.996,170.482c0-5.891-4.781-10.656-10.656-10.656c-4.172,0-7.766,2.375-9.523,5.859  c-1.688,1.75-5.648,4.984-11.82,4.984c-7.953,0-11.819-5.266-12.233-5.859c0.078,0.109,0.109,0.172,0.109,0.172l-0.062,0.031  c-1.867-3.109-5.258-5.188-9.148-5.188c-5.891,0-10.664,4.766-10.664,10.656c0,2.609,0.938,5,2.484,6.844  c4.164,5.875,14.352,14.671,29.515,14.671c15.883,0,26.578-9.687,30.406-15.406l-0.219-0.156  C287.324,174.748,287.996,172.685,287.996,170.482z"></path></g><g></g><g></g><g></g><g></g><g></g><g></g><g></g><g></g><g></g><g></g><g></g><g></g><g></g><g></g><g></g></svg>